<svg width="37" height="37" viewBox="0 0 37 37" fill="none" xmlns="http://www.w3.org/2000/svg">
<g id="fi_64494" clip-path="url(#clip0_159_1478)">
<g id="Group">
<g id="Group_2">
<path id="Vector" d="M31.5006 5.3705C24.4711 -1.65826 13.0737 -1.65905 6.04335 5.3705C-0.986195 12.4 -0.985412 23.7974 6.04335 30.8277C13.0729 37.8557 24.4703 37.8565 31.5006 30.8277C38.5294 23.7974 38.5286 12.4008 31.5006 5.3705ZM21.1191 25.9254C21.1191 27.2222 20.068 28.2733 18.7712 28.2733C17.4744 28.2733 16.4233 27.2222 16.4233 25.9254V16.5339C16.4233 15.2371 17.4744 14.186 18.7712 14.186C20.068 14.186 21.1191 15.2371 21.1191 16.5339V25.9254ZM18.7297 12.5206C17.3773 12.5206 16.4757 11.5626 16.5039 10.3801C16.4757 9.14041 17.3773 8.21143 18.7571 8.21143C20.1377 8.21143 21.0111 9.14119 21.04 10.3801C21.0392 11.5626 20.1384 12.5206 18.7297 12.5206Z" fill="#FCB135"/>
</g>
</g>
</g>
<defs>
<clipPath id="clip0_159_1478">
<rect width="36" height="36" fill="white" transform="translate(0.771484 0.0986328)"/>
</clipPath>
</defs>
</svg>
