<svg width="37" height="37" viewBox="0 0 37 37" fill="none" xmlns="http://www.w3.org/2000/svg">
<g id="account-settings 1" clip-path="url(#clip0_144_1598)">
<g id="Path 12203">
<path id="Path 12203_2" d="M35.9109 21.8937V15.4583L30.9961 14.6388C30.7974 14.036 30.5545 13.4488 30.2693 12.8818L33.1647 8.82917L28.6149 4.27947L24.5692 7.16971C23.9994 6.88093 23.4086 6.6357 22.8018 6.43604L21.9858 1.5332H15.5503L14.7344 6.43604C14.1285 6.6367 13.5383 6.88191 12.9687 7.16971L8.92292 4.27947L4.37322 8.82917L7.26864 12.8818C6.9834 13.4488 6.74049 14.036 6.54182 14.6388L1.62695 15.4583V21.8937L6.5538 22.7148C6.75195 23.3126 6.99434 23.8948 7.27895 24.4565L4.37495 28.5246L8.92465 33.0743L12.9995 30.16C13.5589 30.4414 14.1382 30.6815 14.7326 30.8783L15.5555 35.8155H21.9909L22.8138 30.8783C23.4084 30.682 23.9878 30.4419 24.5469 30.16L28.6218 33.0743L33.1715 28.5246L30.2675 24.4565C30.5521 23.8948 30.7945 23.3126 30.9927 22.7148L35.9195 21.8937H35.9109ZM18.7681 22.9634C17.9205 22.9634 17.0919 22.7121 16.3871 22.2412C15.6823 21.7703 15.133 21.1009 14.8086 20.3178C14.4842 19.5347 14.3993 18.673 14.5647 17.8416C14.7301 17.0103 15.1383 16.2467 15.7376 15.6473C16.337 15.0479 17.1006 14.6397 17.932 14.4744C18.7633 14.309 19.625 14.3939 20.4081 14.7183C21.1912 15.0426 21.8606 15.592 22.3315 16.2967C22.8024 17.0015 23.0538 17.8301 23.0538 18.6777C23.0538 19.8144 22.6023 20.9045 21.7985 21.7082C20.9948 22.5119 19.9047 22.9634 18.7681 22.9634Z" fill="#FCB103"/>
</g>
</g>
<defs>
<clipPath id="clip0_144_1598">
<rect width="36" height="36" fill="white" transform="translate(0.771484 0.678223)"/>
</clipPath>
</defs>
</svg>
