<svg width="46" height="47" viewBox="0 0 46 47" fill="none" xmlns="http://www.w3.org/2000/svg">
<g clip-path="url(#clip0_158_1349)">
<path d="M29.6855 13.5205C27.9893 13.5205 26.6094 12.1099 26.6094 10.376V0.0439453H10.877C8.21149 0.0439453 6.04297 2.26066 6.04297 4.98535V41.1025C6.04297 43.8272 8.21149 46.0439 10.877 46.0439H35.4863C38.1518 46.0439 40.3203 43.8272 40.3203 41.1025V13.5205H29.6855ZM13.25 32.3877H19.6414C20.3695 32.3877 20.9598 32.9911 20.9598 33.7354C20.9598 34.4796 20.3695 35.083 19.6414 35.083H13.25C12.5219 35.083 11.9316 34.4796 11.9316 33.7354C11.9316 32.9911 12.5219 32.3877 13.25 32.3877ZM11.9316 26.5479C11.9316 25.8036 12.5219 25.2002 13.25 25.2002H32.5859C33.314 25.2002 33.9043 25.8036 33.9043 26.5479C33.9043 27.2921 33.314 27.8955 32.5859 27.8955H13.25C12.5219 27.8955 11.9316 27.2921 11.9316 26.5479ZM32.5859 18.0127C33.314 18.0127 33.9043 18.6161 33.9043 19.3604C33.9043 20.1046 33.314 20.708 32.5859 20.708H13.25C12.5219 20.708 11.9316 20.1046 11.9316 19.3604C11.9316 18.6161 12.5219 18.0127 13.25 18.0127H32.5859Z" fill="#2AC7C2"/>
<path d="M29.2461 10.3761C29.2461 10.6238 29.4432 10.8254 29.6855 10.8254H39.7327C39.4915 10.3702 39.1813 9.95217 38.8085 9.59163L30.3338 1.3959C30.0049 1.07785 29.6386 0.812543 29.2462 0.603027V10.3761H29.2461Z" fill="#2AC7C2"/>
</g>
<defs>
<clipPath id="clip0_158_1349">
<rect width="45" height="46" fill="white" transform="translate(0.681641 0.0439453)"/>
</clipPath>
</defs>
</svg>
