<svg width="37" height="37" viewBox="0 0 37 37" fill="none" xmlns="http://www.w3.org/2000/svg">
<g id="fi_18436" clip-path="url(#clip0_159_1488)">
<g id="Group">
<path id="Vector" d="M18.7725 0.678223C8.83467 0.678223 0.772461 8.73026 0.772461 18.6688C0.772461 28.6168 8.83467 36.6782 18.7724 36.6782C28.7157 36.6782 36.771 28.6167 36.771 18.6688C36.7711 8.73026 28.7157 0.678223 18.7725 0.678223ZM20.0552 28.6845C19.6371 29.0565 19.1526 29.2435 18.6038 29.2435C18.0359 29.2435 17.5406 29.0598 17.1178 28.6919C16.6943 28.3246 16.4822 27.8103 16.4822 27.1496C16.4822 26.5635 16.6875 26.0702 17.0968 25.6704C17.5061 25.2706 18.0082 25.0707 18.6038 25.0707C19.1899 25.0707 19.6832 25.2706 20.0837 25.6704C20.4835 26.0702 20.6841 26.5634 20.6841 27.1496C20.6833 27.8008 20.4739 28.3125 20.0552 28.6845ZM25.268 15.7611C24.9468 16.3567 24.5654 16.8703 24.1229 17.3034C23.6817 17.7364 22.8883 18.4641 21.7431 19.4873C21.4273 19.776 21.1732 20.0294 20.9828 20.2475C20.7924 20.4664 20.6501 20.6663 20.5573 20.8479C20.4637 21.0295 20.392 21.2111 20.3411 21.3927C20.2903 21.5736 20.2137 21.8928 20.11 22.3487C19.9339 23.3164 19.3803 23.8001 18.4499 23.8001C17.9661 23.8001 17.5595 23.6423 17.2282 23.3258C16.8981 23.0094 16.7335 22.5398 16.7335 21.9164C16.7335 21.1352 16.8548 20.4582 17.0967 19.8857C17.3373 19.3131 17.6591 18.811 18.0589 18.378C18.4594 17.945 18.9987 17.4313 19.6784 16.8357C20.274 16.3146 20.7043 15.9217 20.9692 15.6567C21.2348 15.3911 21.4578 15.0956 21.6387 14.7704C21.821 14.4444 21.9105 14.0914 21.9105 13.7099C21.9105 12.9653 21.6347 12.3378 21.0804 11.8262C20.5268 11.3146 19.8126 11.0585 18.9378 11.0585C17.914 11.0585 17.1605 11.3166 16.6766 11.833C16.1928 12.3493 15.7843 13.1096 15.4488 14.1145C15.1317 15.1662 14.5313 15.6919 13.6484 15.6919C13.1273 15.6919 12.6875 15.5083 12.3291 15.141C11.9713 14.7737 11.7924 14.376 11.7924 13.9478C11.7924 13.0641 12.0763 12.1683 12.6435 11.261C13.2114 10.3537 14.0394 9.60222 15.1283 9.00727C16.2165 8.41165 17.4871 8.11347 18.9378 8.11347C20.2869 8.11347 21.4775 8.3628 22.5102 8.86089C23.5429 9.35822 24.341 10.0352 24.9041 10.8917C25.4666 11.7474 25.7484 12.6778 25.7484 13.6828C25.7498 14.4723 25.5892 15.1655 25.268 15.7611Z" fill="#FCB135"/>
</g>
</g>
<defs>
<clipPath id="clip0_159_1488">
<rect width="36" height="36" fill="white" transform="translate(0.771484 0.678223)"/>
</clipPath>
</defs>
</svg>
