<svg width="27" height="34" viewBox="0 0 27 34" fill="none" xmlns="http://www.w3.org/2000/svg">
<g id="Group 300">
<path id="Shape (Stroke)" fill-rule="evenodd" clip-rule="evenodd" d="M13.1195 3.93359C7.72187 3.93359 3.32742 8.51432 3.32742 14.1891C3.32742 18.1602 5.80501 22.058 8.58528 25.1282C9.94368 26.6282 11.3074 27.8573 12.3332 28.7119C12.6268 28.9564 12.8916 29.1695 13.1195 29.3485C13.3473 29.1695 13.6122 28.9564 13.9058 28.7119C14.9316 27.8573 16.2953 26.6282 17.6537 25.1282C20.4339 22.058 22.9115 18.1602 22.9115 14.1891C22.9115 8.51432 18.5171 3.93359 13.1195 3.93359ZM13.1195 31.3806C12.2363 32.7474 12.2359 32.7471 12.2354 32.7468L12.2314 32.744L12.2224 32.7377L12.1923 32.7164L12.0852 32.6395C11.9938 32.5733 11.8631 32.4772 11.6986 32.353C11.3699 32.1046 10.9055 31.7428 10.3506 31.2805C9.24325 30.3581 7.76278 29.025 6.27701 27.3843C3.36895 24.1729 0.158203 19.475 0.158203 14.1891C0.158203 6.7176 5.95077 0.641113 13.1195 0.641113C20.2882 0.641113 26.0808 6.7176 26.0808 14.1891C26.0808 19.475 22.87 24.1729 19.9619 27.3843C18.4762 29.025 16.9957 30.3581 15.8884 31.2805C15.3335 31.7428 14.8691 32.1046 14.5403 32.353C14.3759 32.4772 14.2451 32.5733 14.1537 32.6395L14.0467 32.7164L14.0166 32.7377L14.0076 32.744L14.0046 32.7461C14.0042 32.7464 14.0027 32.7474 13.1195 31.3806ZM13.1195 31.3806L14.0046 32.7461C13.4704 33.1187 12.7696 33.1194 12.2354 32.7468L13.1195 31.3806Z" fill="#2AC7C2"/>
<path id="Oval (Stroke)" fill-rule="evenodd" clip-rule="evenodd" d="M8.79785 13.5924C8.79785 11.2076 10.7322 9.27441 13.1183 9.27441C15.5044 9.27441 17.4387 11.2076 17.4387 13.5924C17.4387 15.9771 15.5044 17.9104 13.1183 17.9104C10.7322 17.9104 8.79785 15.9771 8.79785 13.5924ZM13.1183 11.9655C12.2193 11.9655 11.4905 12.6939 11.4905 13.5924C11.4905 14.4909 12.2193 15.2193 13.1183 15.2193C14.0173 15.2193 14.7461 14.4909 14.7461 13.5924C14.7461 12.6939 14.0173 11.9655 13.1183 11.9655Z" fill="#2AC7C2"/>
</g>
</svg>
