<svg width="28" height="29" viewBox="0 0 28 29" fill="none" xmlns="http://www.w3.org/2000/svg">
<g id="logout 1" clip-path="url(#clip0_144_3046)">
<path id="Vector" d="M27.124 13.6254H16.041C15.558 13.6254 15.166 13.2334 15.166 12.7505C15.166 12.2675 15.558 11.8755 16.041 11.8755H27.124C27.607 11.8755 27.999 12.2675 27.999 12.7505C27.999 13.2334 27.607 13.6254 27.124 13.6254Z" fill="white"/>
<path id="Vector_2" d="M22.7498 18.0003C22.5257 18.0003 22.3018 17.9151 22.1313 17.7437C21.7896 17.4017 21.7896 16.8476 22.1313 16.5058L25.888 12.7494L22.1313 8.99273C21.7896 8.65094 21.7896 8.09682 22.1313 7.75503C22.4733 7.41304 23.0275 7.41304 23.3692 7.75503L27.7441 12.1299C28.0859 12.4717 28.0859 13.0258 27.7441 13.3676L23.3692 17.7425C23.1977 17.9151 22.9738 18.0003 22.7498 18.0003Z" fill="white"/>
<path id="Vector_3" d="M9.33311 28.5001C9.08339 28.5001 8.84649 28.4651 8.60981 28.3916L1.58888 26.0525C0.633586 25.7188 0 24.8287 0 23.8337V2.83431C0 1.54748 1.04651 0.500977 2.33333 0.500977C2.58284 0.500977 2.81974 0.53601 3.05664 0.609494L10.0774 2.94859C11.0329 3.28226 11.6662 4.1724 11.6662 5.16743V26.1668C11.6662 27.4536 10.6199 28.5001 9.33311 28.5001ZM2.33333 2.25092C2.01248 2.25092 1.74995 2.51346 1.74995 2.83431V23.8337C1.74995 24.0821 1.91678 24.313 2.15475 24.3959L9.14278 26.7245C9.19298 26.7408 9.25835 26.7502 9.33311 26.7502C9.65396 26.7502 9.91628 26.4876 9.91628 26.1668V5.16743C9.91628 4.91899 9.74945 4.68807 9.51148 4.60519L2.52345 2.27656C2.47325 2.26032 2.40788 2.25092 2.33333 2.25092Z" fill="white"/>
<path id="Vector_4" d="M17.7907 9.83409C17.3077 9.83409 16.9157 9.4421 16.9157 8.95912V3.70928C16.9157 2.90544 16.2614 2.25092 15.4576 2.25092H2.33298C1.84999 2.25092 1.45801 1.85894 1.45801 1.37595C1.45801 0.892963 1.84999 0.500977 2.33298 0.500977H15.4576C17.2274 0.500977 18.6657 1.93947 18.6657 3.70928V8.95912C18.6657 9.4421 18.2737 9.83409 17.7907 9.83409Z" fill="white"/>
<path id="Vector_5" d="M15.4577 25.0001H10.791C10.308 25.0001 9.91602 24.6081 9.91602 24.1251C9.91602 23.6421 10.308 23.2502 10.791 23.2502H15.4577C16.2615 23.2502 16.9158 22.5956 16.9158 21.7918V16.542C16.9158 16.059 17.3078 15.667 17.7908 15.667C18.2738 15.667 18.6657 16.059 18.6657 16.542V21.7918C18.6657 23.5616 17.2275 25.0001 15.4577 25.0001Z" fill="white"/>
</g>
<defs>
<clipPath id="clip0_144_3046">
<rect width="28" height="28" fill="white" transform="translate(0 0.5)"/>
</clipPath>
</defs>
</svg>
