<svg width="30" height="30" viewBox="0 0 30 30" fill="none" xmlns="http://www.w3.org/2000/svg">
<g id="maps-and-flags 1">
<g id="Group">
<g id="Group_2">
<path id="Vector" d="M14.9996 0C9.00871 0 4.13477 4.87395 4.13477 10.8648C4.13477 18.2997 13.8578 29.2144 14.2717 29.6755C14.6605 30.1085 15.3394 30.1078 15.7275 29.6755C16.1415 29.2144 25.8645 18.2997 25.8645 10.8648C25.8644 4.87395 20.9905 0 14.9996 0ZM14.9996 16.3312C11.9854 16.3312 9.5333 13.879 9.5333 10.8648C9.5333 7.85063 11.9855 5.39848 14.9996 5.39848C18.0138 5.39848 20.4659 7.85068 20.4659 10.8649C20.4659 13.879 18.0138 16.3312 14.9996 16.3312Z" fill="#2ABCC2"/>
</g>
</g>
</g>
</svg>
