<svg width="46" height="44" viewBox="0 0 46 44" fill="none" xmlns="http://www.w3.org/2000/svg">
<path d="M11.5 0C9.91875 0 8.625 1.29375 8.625 2.875V43.125C8.625 44.7062 9.91875 46 11.5 46H40.25C41.8312 46 43.125 44.7062 43.125 43.125V11.5L31.625 0H11.5Z" fill="#E2E5E7"/>
<path d="M34.5 11.5H43.125L31.625 0V8.625C31.625 10.2063 32.9187 11.5 34.5 11.5Z" fill="#B0B7BD"/>
<path d="M43.125 20.125L34.5 11.5H43.125V20.125Z" fill="#CAD1D8"/>
<path d="M37.375 37.375C37.375 38.1656 36.7281 38.8125 35.9375 38.8125H4.3125C3.52187 38.8125 2.875 38.1656 2.875 37.375V23C2.875 22.2094 3.52187 21.5625 4.3125 21.5625H35.9375C36.7281 21.5625 37.375 22.2094 37.375 23V37.375Z" fill="#F15642"/>
<path d="M9.14062 27.2359C9.14062 26.8564 9.43962 26.4424 9.92119 26.4424H12.5762C14.0712 26.4424 15.4168 27.4429 15.4168 29.3605C15.4168 31.1775 14.0712 32.1895 12.5762 32.1895H10.6572V33.7075C10.6572 34.2135 10.3352 34.4996 9.92119 34.4996C9.54169 34.4996 9.14062 34.2135 9.14062 33.7075V27.2359ZM10.6572 27.8899V30.7534H12.5762C13.3467 30.7534 13.9562 30.0735 13.9562 29.3605C13.9562 28.5569 13.3467 27.8899 12.5762 27.8899H10.6572Z" fill="white"/>
<path d="M17.6675 34.4996C17.288 34.4996 16.874 34.2926 16.874 33.788V27.2589C16.874 26.8463 17.288 26.5459 17.6675 26.5459H20.2996C25.5522 26.5459 25.4372 34.4996 20.4031 34.4996H17.6675ZM18.392 27.9489V33.098H20.2996C23.4031 33.098 23.5411 27.9489 20.2996 27.9489H18.392Z" fill="white"/>
<path d="M27.3005 28.0414V29.8684H30.2316C30.6456 29.8684 31.0596 30.2824 31.0596 30.6835C31.0596 31.063 30.6456 31.3735 30.2316 31.3735H27.3005V33.787C27.3005 34.1895 27.0144 34.4986 26.6119 34.4986C26.1059 34.4986 25.7969 34.1895 25.7969 33.787V27.2579C25.7969 26.8454 26.1074 26.5449 26.6119 26.5449H30.647C31.153 26.5449 31.452 26.8454 31.452 27.2579C31.452 27.6259 31.153 28.0399 30.647 28.0399H27.3005V28.0414Z" fill="white"/>
<path d="M35.9375 38.8125H8.625V40.25H35.9375C36.7281 40.25 37.375 39.6031 37.375 38.8125V37.375C37.375 38.1656 36.7281 38.8125 35.9375 38.8125Z" fill="#CAD1D8"/>
</svg>
