<svg width="37" height="37" viewBox="0 0 37 37" fill="none" xmlns="http://www.w3.org/2000/svg">
<g id="review 1" clip-path="url(#clip0_144_1606)">
<path id="Vector" d="M30.4618 1.98096H7.15646C3.63589 1.98096 0.771484 4.83905 0.771484 8.35193V32.1793C0.771484 33.0231 1.28345 33.7938 2.07639 34.1426C2.35626 34.2657 2.65317 34.3261 2.9476 34.3261C3.47495 34.3261 3.99597 34.1327 4.40027 33.765C7.26907 31.1782 11.1047 29.6679 15.0449 29.6679H15.0463L30.4659 29.6692C33.9428 29.6692 36.7715 26.8342 36.7715 23.3496V8.27667C36.7715 4.80554 33.9406 1.98096 30.4618 1.98096ZM18.7715 25.7691C13.4124 25.7691 9.05161 21.4188 9.05161 16.0723C9.05161 10.7258 13.4124 6.37549 18.7715 6.37549C24.1306 6.37549 28.4914 10.7258 28.4914 16.0723C28.4914 21.4188 24.1306 25.7691 18.7715 25.7691ZM18.7715 8.48486C14.5753 8.48486 11.161 11.8887 11.161 16.0723C11.161 20.2559 14.5753 23.6597 18.7715 23.6597C22.9677 23.6597 26.382 20.2559 26.382 16.0723C26.382 11.8887 22.9677 8.48486 18.7715 8.48486ZM14.9625 13.1994C14.9625 12.6171 15.4344 12.1447 16.0172 12.1447C16.5995 12.1447 17.0719 12.6171 17.0719 13.1994V14.4817C17.0719 15.0646 16.5995 15.5364 16.0172 15.5364C15.4344 15.5364 14.9625 15.0646 14.9625 14.4817V13.1994ZM19.4592 20.8387H18.1837C16.4075 20.8387 14.9625 19.3959 14.9625 17.6233C14.9625 17.0405 15.4344 16.5686 16.0172 16.5686C16.5995 16.5686 17.0719 17.0405 17.0719 17.6233C17.0719 18.233 17.5707 18.7293 18.1837 18.7293H19.4592C20.0723 18.7293 20.5708 18.233 20.5708 17.6233C20.5708 17.0405 21.0432 16.5686 21.6255 16.5686C22.2083 16.5686 22.6801 17.0405 22.6801 17.6233C22.6801 19.3959 21.2352 20.8387 19.4592 20.8387ZM22.6801 14.4817C22.6801 15.0646 22.2083 15.5364 21.6255 15.5364C21.0432 15.5364 20.5708 15.0646 20.5708 14.4817V13.1994C20.5708 12.6171 21.0432 12.1447 21.6255 12.1447C22.2083 12.1447 22.6801 12.6171 22.6801 13.1994V14.4817Z" fill="#FBAE3D"/>
</g>
<defs>
<clipPath id="clip0_144_1606">
<rect width="36" height="36" fill="white" transform="translate(0.771484 0.151855)"/>
</clipPath>
</defs>
</svg>
