<svg width="37" height="37" viewBox="0 0 37 37" fill="none" xmlns="http://www.w3.org/2000/svg">
<g id="fi_2921087" clip-path="url(#clip0_159_1468)">
<path id="Vector" opacity="0.6" d="M19.1465 3.13182H17.4965C17.0015 1.39841 15.4115 0.117188 13.5215 0.117188C11.6315 0.117188 10.0415 1.39841 9.54648 3.13182H7.89648C7.28148 3.13182 6.77148 3.64431 6.77148 4.26231V6.52328C6.77148 7.97031 7.95648 9.16109 9.39648 9.16109H17.6465C19.0865 9.16109 20.2715 7.97031 20.2715 6.52328V4.26231C20.2715 3.64431 19.7615 3.13182 19.1465 3.13182Z" fill="#FCB135"/>
<path id="Vector_2" d="M22.1465 4.63916H21.7715V6.52331C21.7715 8.81443 19.9265 10.6684 17.6465 10.6684H9.39649C7.11649 10.6684 5.27148 8.81443 5.27148 6.52331V4.63916H4.89648C2.61648 4.63916 0.771484 6.49316 0.771484 8.78428V27.6257C0.771484 29.9169 2.61648 31.7709 4.89648 31.7709H15.9665L16.2965 29.9169C16.4465 29.0728 16.8365 28.3191 17.4365 27.7011L18.6365 26.4953H6.39648C5.78148 26.4953 5.27148 25.9828 5.27148 25.3648C5.27148 24.7468 5.78148 24.2343 6.39648 24.2343H20.6465C20.7215 24.2343 20.7815 24.2343 20.8565 24.2644H20.8715L26.2715 18.8381V8.78428C26.2715 6.49316 24.4265 4.63916 22.1465 4.63916ZM20.6465 21.5965H6.39648C5.78148 21.5965 5.27148 21.084 5.27148 20.466C5.27148 19.848 5.78148 19.3355 6.39648 19.3355H20.6465C21.2615 19.3355 21.7715 19.848 21.7715 20.466C21.7715 21.084 21.2615 21.5965 20.6465 21.5965ZM20.6465 16.6977H6.39648C5.78148 16.6977 5.27148 16.1852 5.27148 15.5672C5.27148 14.9492 5.78148 14.4367 6.39648 14.4367H20.6465C21.2615 14.4367 21.7715 14.9492 21.7715 15.5672C21.7715 16.1852 21.2615 16.6977 20.6465 16.6977Z" fill="#FCB135"/>
<path id="Vector_3" opacity="0.6" d="M19.5619 36.293C19.2664 36.293 18.9784 36.1754 18.7669 35.9614C18.5074 35.7006 18.3904 35.3298 18.4549 34.9651L19.2499 30.4356C19.2889 30.208 19.3999 29.997 19.5619 29.8327L30.6994 18.6423C32.0674 17.2646 33.4114 17.637 34.1464 18.3755L36.0019 20.2401C37.0264 21.2681 37.0264 22.9412 36.0019 23.9707L24.8644 35.1625C24.7024 35.3268 24.4924 35.4369 24.2644 35.4761L19.7569 36.2749C19.6924 36.287 19.6264 36.293 19.5619 36.293Z" fill="#FCB135"/>
</g>
<defs>
<clipPath id="clip0_159_1468">
<rect width="36" height="36.1756" fill="white" transform="translate(0.771484 0.117188)"/>
</clipPath>
</defs>
</svg>
